<svg xmlns="http://www.w3.org/2000/svg" viewBox="0 0 65.538 59.444"><defs><style>.cls-1{fill:#4bad38;stroke:#010101;}.cls-1,.cls-3,.cls-4{stroke-miterlimit:10;}.cls-2{fill:#010101;}.cls-3{fill:#fff;stroke-linecap:round;stroke-width:1.2px;}.cls-3,.cls-4{stroke:#000;}.cls-4{fill:none;}</style></defs><title>smile_1</title><g id="Слой_2" data-name="Слой 2"><g id="Слой_1-2" data-name="Слой 1"><circle class="cls-1" cx="39.039" cy="26.498" r="25.998"/><circle class="cls-2" cx="48.346" cy="19.351" r="2.109"/><circle class="cls-2" cx="29.339" cy="19.351" r="2.109"/><path class="cls-2" d="M27.23,34.139v1.445a17.444,17.444,0,0,0,11.618,4.125,17.632,17.632,0,0,0,11.618-4.042V34.139a17.246,17.246,0,0,1-11.618,4.219A17.246,17.246,0,0,1,27.23,34.139Z"/><path class="cls-3" d="M21.2,48.185c1.482,2.12-1.11,4.018-1.218,4.355-.132.414.782.555.714,2.137s-1.255,2.729-4.561,3.59A17.952,17.952,0,0,1,6.511,58.1a6.837,6.837,0,0,1-4.348-4.116c-.277-.88.362-1.046.29-2.37S1.1,50.1,1.461,48.726,2.8,46,1.25,43.972s.084-3.005.652-4.031.077-2.082-.275-3.441,1.211-2.585,3.638-3.211,2.279-1.545,2.279-1.545a27.657,27.657,0,0,0,.083-4.874c-.092-4.252-.655-3.262-.959-7.476s2.288-4.67,2.288-4.67a5.309,5.309,0,0,1,3.121.2c4.462,1.076,4.456,7.639,4.456,7.639.071.73-1.346,4.436-2.064,6.216s.3,2.234.3,2.234a21.043,21.043,0,0,1,3.384.724c2.635.691,3.014,1.676,4.057,4.028a5.223,5.223,0,0,1,.095,4.231,5.787,5.787,0,0,1,1,4.091,7.328,7.328,0,0,1-2.1,4.1"/><path class="cls-4" d="M14.763,31.011s-5.056.16-7.7,1.5"/><path d="M6.6,38.02s.182,1.232,4.191.873,6.765-.688,7.935-.834-1.239-.688-3.824-.607S6.942,37.609,6.6,38.02Z"/><path d="M6.915,44.106a1.87,1.87,0,0,0,1.979,1.662c1.827-.01,5.043-.579,6.107-.583s1.16-.006,2.405-.087-2.743-.805-4.036-.749S7.368,44.443,6.915,44.106Z"/><path d="M8.7,50.943a2.9,2.9,0,0,0,3.112,1.978c2.5-.186,6.506-.735,6.506-.735a6.938,6.938,0,0,0-3.361-.44,7.647,7.647,0,0,1-4.58-.244A3.92,3.92,0,0,0,8.7,50.943Z"/><path d="M19,34.031s1.614,1.456,1.174,2.824S19,34.031,19,34.031"/><path d="M19.372,39.76s1.055,3.072-.626,4.042.111-.561.221-1.788S19.023,39.427,19.372,39.76Z"/><path d="M18.414,46.271a2.5,2.5,0,0,0,.144,1.794,2.306,2.306,0,0,1-.045,2.106c-.161.224.756-.177.852-.718A5.135,5.135,0,0,0,18.414,46.271Z"/><path d="M13.153,26.129s.626-.068.652.261-.164.435-1.038.373a8.93,8.93,0,0,0-2.662.33c-.221.121-.991-.291-.888-.527s.436-.5,1.094-.579A22.73,22.73,0,0,1,13.153,26.129Z"/></g></g></svg>