<svg xmlns="http://www.w3.org/2000/svg" viewBox="0 0 68.524 62.443"><defs><style>.cls-1{fill:#fde139;stroke:#010101;}.cls-1,.cls-3,.cls-4{stroke-miterlimit:10;}.cls-2{fill:#010101;}.cls-3{fill:#fff;stroke-linecap:round;stroke-width:1.2px;}.cls-3,.cls-4{stroke:#000;}.cls-4{fill:none;}</style></defs><title>smile_2</title><g id="Слой_2" data-name="Слой 2"><g id="Слой_1-2" data-name="Слой 1"><circle class="cls-1" cx="42.025" cy="26.498" r="25.998"/><circle class="cls-2" cx="51.332" cy="19.351" r="2.109"/><circle class="cls-2" cx="32.325" cy="19.351" r="2.109"/><path class="cls-2" d="M30.216,36.333v1.375H53.452V36.438s-4.219-.08-11.618-.08S30.216,36.333,30.216,36.333Z"/><path class="cls-3" d="M11.243,59.648c-2.122,1.479-4.016-1.117-4.353-1.225-.414-.133-.556.781-2.139.71s-2.727-1.259-3.582-4.567a17.952,17.952,0,0,1,.179-9.623A6.837,6.837,0,0,1,5.471,40.6c.88-.275,1.045.364,2.37.294s1.525-1.347,2.894-.988,2.726,1.343,4.755-.2,3.005.089,4.03.658,2.082.08,3.442-.269,2.583,1.215,3.2,3.644,1.541,2.281,1.541,2.281a27.657,27.657,0,0,0,4.874.091c4.252-.085,3.263-.65,7.477-.947s4.666,2.3,4.666,2.3a5.309,5.309,0,0,1-.2,3.121c-1.083,4.46-7.646,4.443-7.646,4.443-.731.07-4.434-1.353-6.213-2.074s-2.235.292-2.235.292a21.043,21.043,0,0,1-.73,3.383c-.695,2.633-1.681,3.011-4.034,4.051a5.223,5.223,0,0,1-4.232.088,5.787,5.787,0,0,1-4.092,1,7.328,7.328,0,0,1-4.1-2.11"/><path class="cls-4" d="M28.428,53.239s-.152-5.056-1.491-7.7"/><path d="M21.433,45.066s-1.233.18-.88,4.19.677,6.766.821,7.936.69-1.237.613-3.823S21.843,45.407,21.433,45.066Z"/><path d="M15.346,45.37a1.87,1.87,0,0,0-1.665,1.976c.007,1.827.571,5.044.573,6.108s0,1.16.083,2.406.81-2.742.756-4.035S15.008,45.822,15.346,45.37Z"/><path d="M8.505,47.139a2.9,2.9,0,0,0-1.983,3.109c.182,2.5.724,6.507.724,6.507a6.938,6.938,0,0,0,.446-3.36,7.647,7.647,0,0,1,.252-4.579A3.92,3.92,0,0,0,8.505,47.139Z"/><path d="M25.4,57.474s-1.459,1.612-2.826,1.169S25.4,57.474,25.4,57.474"/><path d="M19.671,57.834S16.6,58.884,15.63,57.2s.561.112,1.788.224S20.005,57.485,19.671,57.834Z"/><path d="M13.162,56.865a2.5,2.5,0,0,0-1.794.141,2.306,2.306,0,0,1-2.106-.048c-.223-.162.176.756.716.853A5.135,5.135,0,0,0,13.162,56.865Z"/><path d="M33.313,51.637s.066.626-.262.651-.435-.164-.371-1.038a8.93,8.93,0,0,0-.326-2.663c-.121-.221.292-.991.528-.887s.5.437.577,1.095A22.73,22.73,0,0,1,33.313,51.637Z"/></g></g></svg>