<svg xmlns="http://www.w3.org/2000/svg" viewBox="0 0 64.205 68.398"><defs><style>.cls-1{fill:#e41d16;stroke:#010101;}.cls-1,.cls-3,.cls-4{stroke-miterlimit:10;}.cls-2{fill:#010101;}.cls-3{fill:#fff;stroke-linecap:round;stroke-width:1.2px;}.cls-3,.cls-4{stroke:#000;}.cls-4{fill:none;}</style></defs><title>smile_3</title><g id="Слой_2" data-name="Слой 2"><g id="Слой_1-2" data-name="Слой 1"><circle class="cls-1" cx="37.706" cy="26.498" r="25.998"/><circle class="cls-2" cx="47.013" cy="19.351" r="2.109"/><circle class="cls-2" cx="28.006" cy="19.351" r="2.109"/><path class="cls-2" d="M37.515,34.49a17.246,17.246,0,0,1,11.618,4.219V37.18a17.632,17.632,0,0,0-11.618-4.042A17.444,17.444,0,0,0,25.9,37.264v1.445A17.246,17.246,0,0,1,37.515,34.49Z"/><path class="cls-3" d="M2.789,34.18c-1.481-2.12,1.112-4.018,1.22-4.354.132-.414-.782-.555-.713-2.138S4.552,24.959,7.859,24.1a17.952,17.952,0,0,1,9.624.167,6.837,6.837,0,0,1,4.346,4.118c.276.88-.362,1.046-.291,2.37s1.349,1.524.992,2.893-1.339,2.727.209,4.754-.085,3.005-.653,4.031-.078,2.082.274,3.441-1.212,2.585-3.64,3.209-2.279,1.544-2.279,1.544a27.657,27.657,0,0,0-.085,4.874c.091,4.252.654,3.262.956,7.476s-2.29,4.669-2.29,4.669a5.309,5.309,0,0,1-3.121-.2c-4.461-1.078-4.452-7.641-4.452-7.641-.071-.731,1.348-4.436,2.067-6.215s-.295-2.235-.295-2.235a21.043,21.043,0,0,1-3.384-.726C3.2,49.94,2.822,48.954,1.78,46.6a5.223,5.223,0,0,1-.093-4.231,5.787,5.787,0,0,1-1-4.091,7.328,7.328,0,0,1,2.105-4.1"/><path class="cls-4" d="M9.219,51.357s5.056-.158,7.7-1.5"/><path d="M17.384,44.352s-.181-1.233-4.191-.875-6.766.685-7.935.831S6.5,45,9.081,44.916,17.043,44.763,17.384,44.352Z"/><path d="M17.072,38.266A1.87,1.87,0,0,0,15.094,36.6c-1.827.01-5.043.577-6.107.58s-1.16.005-2.406.086,2.743.806,4.036.751S16.62,37.928,17.072,38.266Z"/><path d="M15.295,31.427a2.9,2.9,0,0,0-3.111-1.979c-2.5.185-6.506.732-6.506.732a6.938,6.938,0,0,0,3.36.442,7.647,7.647,0,0,1,4.58.246A3.92,3.92,0,0,0,15.295,31.427Z"/><path d="M4.98,48.336s-1.613-1.457-1.173-2.824S4.98,48.336,4.98,48.336"/><path d="M4.614,42.606s-1.054-3.072.627-4.042-.111.561-.222,1.788S4.963,42.94,4.614,42.606Z"/><path d="M5.574,36.1A2.5,2.5,0,0,0,5.431,34.3,2.306,2.306,0,0,1,5.477,32.2c.162-.224-.756.177-.852.717A5.135,5.135,0,0,0,5.574,36.1Z"/><path d="M10.827,56.24s-.626.067-.652-.261.164-.435,1.038-.373a8.93,8.93,0,0,0,2.662-.329c.221-.121.991.291.887.527s-.436.5-1.094.579A22.73,22.73,0,0,1,10.827,56.24Z"/></g></g></svg>